# xmcd
#
# Track frame offsets:
#       150
#       13501
#       27661
#       46202
#       60010
#       77117
#       102106
#       119175
#       159527
#       171453
#
# Disc length: 2522 seconds
#
# Revision: 1
# Processed by: cddbd v1.5.2PL0 Copyright (c) Steve Scherf et al.
# Submitted via: FreeDbEdit v0.1
#
DISCID=7c09d80a
DTITLE=The O'Jays - Mastercuts Gold - The Best Of [CD1]
DYEAR=1900
DGENRE=Soul
TTITLE0=Love Train
TTITLE1=Now That We Found Love
TTITLE2=Put Your Hands Together
TTITLE3=Back Stabbers
TTITLE4=For the Love of Money
TTITLE5=You Got Your Hooks in Me
TTITLE6=Listen to the Clock on the Wall
TTITLE7=Don't Call Me Brother
TTITLE8=Deeper (In Love With You)
TTITLE9=People Keep Tellin Me
EXTD=
EXTT0=
EXTT1=
EXTT2=
EXTT3=
EXTT4=
EXTT5=
EXTT6=
EXTT7=
EXTT8=
EXTT9=
PLAYORDER=
